<svg width="560" height="560" viewBox="0 0 560 560" fill="none" xmlns="http://www.w3.org/2000/svg">
<path d="M280 0C125.51 0 0 125.51 0 280C0 434.49 125.51 560 280 560C434.49 560 560 434.49 560 280C560 125.51 434.49 0 280 0ZM280 25.453C374.328 25.453 456.5 76.625 500.47 152.723H280C279.496 152.719 278.996 152.743 278.496 152.797C247.637 153.2 217.973 164.797 195.031 185.438C172.086 206.079 157.422 234.352 153.769 264.997L75.1481 128.817C121.48 66.1022 195.928 25.4572 279.998 25.4572L280 25.453ZM59.53 152.703L169.77 343.633L169.774 343.637C170.102 344.203 170.477 344.742 170.891 345.254C193.829 383.664 235.254 407.215 280.001 407.274C297.2 407.262 314.216 403.766 330.024 396.997L251.524 532.957C124.224 518.832 25.4541 411.107 25.4541 280.007C25.4541 233.593 37.8951 190.152 59.5361 152.707L59.53 152.703ZM280 178.183C307.004 178.183 332.902 188.913 351.996 208.007C371.09 227.101 381.816 252.999 381.816 280.003C381.816 307.007 371.089 332.905 351.996 351.999C332.903 371.093 307.004 381.819 280 381.819C252.996 381.819 227.098 371.092 208.004 351.999C188.91 332.906 178.184 307.007 178.184 280.003C178.184 252.999 188.911 227.101 208.004 208.007C227.097 188.913 252.996 178.183 280 178.183ZM356.152 178.183H513.362C526.964 209.359 534.542 243.773 534.542 280.003C534.542 420.733 420.732 534.543 280.012 534.553L390.232 343.643L390.228 343.647C390.595 343.018 390.908 342.362 391.162 341.682C401.674 322.823 407.217 301.6 407.267 280.01C407.22 239.912 388.275 202.182 356.15 178.19L356.152 178.183Z" fill="black"/>
</svg>
